<svg xmlns="http://www.w3.org/2000/svg" width="4368.054" height="5302.201" viewBox="600 200 4368.054 5302.201"><defs><clipPath id="a"><path data-name="Rectangle 56" fill="none" stroke="#a71580" d="M0 0h5302.202v4368.054H0z"/></clipPath></defs><g data-name="Group 23" opacity=".46"><g data-name="Group 21" clip-path="url(#a)" fill="none" stroke="#a71580" stroke-miterlimit="10" stroke-width=".5" transform="matrix(0 1 -1 0 4368.054 0)"><path data-name="Path 25" d="M3.971 1751.452c74.71 109.754 225.095 161.206 351.381 120.223s217.791-170.948 213.809-303.656c-1.908-63.668-23.353-125.273-28.4-188.768-17.94-225.411 199.667-430.2 425.751-426.085s426.5 190.128 477.936 410.328-31.658 458.941-185.525 624.643c-90.271 97.216-202.195 171.807-296.692 264.915s-173.983 214.244-171.491 346.88c3.386 180.613 161.677 328.07 334.527 380.577 142.8 43.373 306.506 33.965 430.294-49.389s195.529-247.8 148.74-389.508c-36.553-110.714-138.372-206.422-121.869-321.84 15.024-105.044 124.957-170.93 229.417-189.585s213.23-5.95 316.444-30.591 206.839-105.772 203.56-211.835c-4.49-145.031-184.822-207.6-273.637-322.34-112.324-145.115-53.92-374.383 90.527-487.577s345.956-127.867 525.376-89.34c295.494 63.447 568.654 278.824 643.745 571.576s-94.593 643.56-387.475 718.127c-157.671 40.142-325.53 2.093-486.039 28.713s-328.863 168.653-283.6 324.928c26.489 91.45 114.8 148.131 176.952 220.259 108.5 125.911 126.412 341.073-.972 447.84-131.36 110.094-326.377 56.525-495.8 30.633-192.053-29.356-396.311-12.508-566.848 80.57s-301.038 270.464-306.777 464.67c-8.651 292.764 267.514 534.265 556.837 579.845s580.792-58.66 844.938-185.2c144.906-69.422 288.792-147.929 400.735-263.192s189.171-273.214 174.934-433.26c-22.745-255.668-266.191-461.8-253.545-718.175 8.8-178.358 161.957-338.336 339.761-354.893s316.563 159.537 358.148 333.2c24.9 104 46.205 169.07 80.5 270.364 56.948 168.223 265.91 257.9 435.38 204.77s286.533-225.417 299.274-402.559-67.7-352.991-191.4-480.434c-103.966-107.107-248.937-207.883-247.154-357.135 2.886-241.085 389.139-359.6 357.731-598.649-14.363-109.313-116.73-185.417-218.823-227.038s-214.382-63.418-303.65-128.117c-196.566-142.477-201.866-458.088-54.384-650.932s402-276.3 644.646-284.345c243.929-8.09 496.83 53.723 685.109 209.021s299.882 412.641 245.628 650.6c-41.5 182.031-169.41 331.141-302.41 462.167s-277.924 255.328-369.959 417.768-120.343 377.43-13.7 530.676c171.991 247.148 608.116 237.412 712.862 519.7 56.156 151.339-19.615 325.274-137.626 435.416s-271.485 172.194-417.446 241.126-293.729 152.311-381.334 287.892-93.352 336.623 27.68 443.432q-15.086-34.592-30.185-69.183"/><path data-name="Path 26" d="M89.859 1726.793c58.3 84.523 196.03 76.456 271.521 6.856s101.307-177.602 110.807-279.832 6.886-207.447 40.935-304.318c52.813-150.235 192.515-261.474 347.276-299.017s321.2-6.916 463.365 64.855c80.839 40.816 156.454 96.006 207.59 170.739 60.168 87.933 82.418 196.889 86 303.37 10.356 308.008-133.441 617.4-375.569 808.058-64.586 50.856-135.659 93.752-195.255 150.373s-108.21 131.086-110.881 213.248c-2.6 79.789 39.689 156.9 100.74 208.336s138.98 79.479 217.678 92.87c53.64 9.128 109.611 11.757 161.725-3.887s100.054-51.81 119.746-102.534c31.092-80.07-12.949-167.073-42.157-247.852-39.647-109.635-52.054-232.154-15.93-343s125.78-207.245 239.266-233.943c77.255-18.178 158.47-4.078 237.251-13.683s164.431-56.144 175.241-134.771c10.749-78.144-54.827-142.652-101.962-205.9-92.584-124.248-124.916-291.368-85.358-441.187s150.774-277.866 292.038-341.536c237.037-106.839 821.311-90.938 1075.691 318.447s214.632 890.327-91.415 1069.187-818.9 39.319-930.069 214.631 155.011 275.032 204.692 473.376 21.863 409-184.821 528.238-671.717-119.238-918.147 27.821-222.578 560.426 294.123 616.075 981.742-162.965 1065.21-472.988-246.975-680.733-119.24-981.736 544.526-321.947 727.362-127.193 147.064 596.2 433.24 639.924 397.461-421.417 71.544-705.553-282.2-478.9-95.392-661.733 278.222-409.386 95.392-480.929-465.035-186.813-484.909-604.152S3738.879-24.262 4386.75 3.559s941.993 512.731 890.321 910.2-685.1 725.663-763.134 1081.1 453.11 409.392 687.613 723.391 19.877 651.841-298.1 826.724-786.981 317.977-548.5 759.164"/><path data-name="Path 27" d="M77.971 2011.651c114.876 64.795 261.165 70.387 380.649 14.553s209.045-171.646 233.036-301.333c15.239-82.377 5.33-167 3.846-250.767s6.934-171.86 53.431-241.55c72.092-108.061 227.927-142.855 347.256-91.528s198.76 175.045 215.454 303.867-23.311 260.521-91.648 371-163.508 201.893-263.943 284.278c-88.744 72.8-184.058 141.281-249.211 235.791-81.1 117.642-107.56 271.383-70.441 409.368s137.12 257.707 266.292 318.787c140.834 66.6 285.591 73.762 439.923 52.555s304.5-95.72 399.274-219.353 126.776-298.189 64.044-440.781c-29.094-66.112-78.114-132.416-62.261-202.886 12.073-53.664 60.634-92.733 112.586-110.8s107.966-19.245 162.78-23.812c121.708-10.147 247.082-40.518 339.66-120.17s142.14-218.548 89.692-328.839c-63.96-134.5-244.155-177.584-318.441-306.661-76.015-132.082-1.014-293.86 131.08-349.307 163.013-68.432 354.327-68.181 516.308 3.279 182.687 80.6 323.676 249.98 369.792 444.257 36.672 154.481 13.277 324.362-72.82 457.767s-236.077 226.144-394.683 233.412c-132.725 6.081-268.963-44.3-396.192-6.022-75.932 22.84-141.675 77.679-177.768 148.281s-42.056 156.007-16.115 230.937c25.887 74.775 80.236 135.552 130.973 196.275s100.65 126.853 114.488 204.759-20.366 169.934-94.879 196.572c-131.45 47-249.4 52.239-388.924 47.553s-280.464-19.073-417.828 5.813c-190.688 34.55-365.97 147.428-476.315 306.738s-154.392 363.087-119.693 553.747"/><path data-name="Path 28" d="M2824.806 3951.094c185.841-126.01 277.942-375.5 218.543-592.041-27.67-100.871-83.641-191.153-132.32-283.737s-91.427-192.757-88.84-297.324 61.587-213.988 161.134-246.1c98.462-31.765 208.419 20.348 274.955 99.577s98.993 180.785 129.935 279.51 63.394 200.281 129.912 279.515c108.21 128.886 299.685 175.42 459.424 122.465s282.521-196.865 322.759-360.265 1.645-341.723-91.23-482.068c-56.842-85.9-132.219-157.945-193.115-241.019s-108.192-183.814-95.588-286.044c14.905-120.855 107.721-214.757 189.806-304.705s162.88-201.164 145.37-321.671c-17.373-119.55-126.966-204.359-238.164-251.566s-233.28-71-335.027-136.13-180.094-192.107-137.591-305.182"/><path data-name="Path 29" d="M4949.121 1022.206c-102.272 198.308-282.192 342.522-435.2 504.926s-288.465 370.06-264.145 591.858c18.088 165 123.5 309.3 249.872 416.921 56.246 47.9 118.536 85.477 177.769 129.029 54.4 40 114.237 57.283 178.49 79.908 145.532 51.237 312.742 162.154 214.411 338.939-44.524 80.04-126.907 130.9-208.389 172.719-133.333 68.438-273.727 122.3-407.341 190.182s-262.375 151.684-356.711 268.134-151.047 269.643-126.728 417.524"/><path data-name="Path 30" d="M127.348 2141.7c137.835 37.065 290.808 13.683 411.276-62.869s206.612-205.11 231.593-345.646c16.89-95.016 7.035-193.794 29.393-287.678s92.113-188.4 188.542-192.519c66.136-2.82 128.684 39.552 162.989 96.167s43.844 125.2 41.364 191.35c-4.686 125.154-50.79 248.412-129.4 345.9-95.952 118.99-234.36 196-340.549 305.939-155.93 161.427-234.461 394.522-208.014 617.393 16.974 142.963 80.487 288.9 210.685 362.411 55.989 31.61 109.51 33.656 170.906 43.367 25.476 4.031 58.833 9.694 72.408 34.931 30.823 57.295-37.137 126.942-66.3 169.392-44.065 64.169-75.3 142.11-100.054 215.472-51.607 152.961-69.529 317.428-50.206 477.793"/><path data-name="Path 31" d="M930.851 1428.158c-15.525 40.863-13.736 85.882-16 129.53a676.2 676.2 0 0 1-117.459 346.128c-14.762 21.463-30.943 50.588-14.9 71.121 17.647 22.608 53.855 9.152 77.011-7.763 90.92-66.411 159.572-162.78 192.644-270.406 25.994-84.589 32.242-181.03 10.875-267.425-21.684-87.658-99.619-86.865-132.171-1.185Z"/><path data-name="Path 32" d="M90.801 2232.346c84.577 44.56 189.007 36.786 277.96 1.771s165.749-94.486 241.31-153.039c23.437-18.16 54.516-37.131 80.54-22.93 21.606 11.787 26.763 42.133 18.154 65.194s-27.258 40.637-44.858 57.843c-106.964 104.6-196.99 229.035-247.2 369.971s-58.5 299.22-7.607 439.9 164.42 260.837 307.358 304.991c36.476 11.262 78.728 20.766 97.58 53.962 25.833 45.49-9.4 99.785-38.365 143.344-130.43 196.131-151.124 460.438-52.805 674.479"/><path data-name="Path 33" d="M31.724 2393.123c22.579 37.178 73.511 48.554 115.752 38.186 76.1-18.673 125.881-85.62 193.407-120.343 20.426-10.505 46.146-15.9 65.773-3.971 17.826 10.833 25.625 33.477 24.462 54.308s-9.715 40.429-18.149 59.513c-129.751 293.753-219.174 730.248 125.178 919.612 30.168 16.592 63.537 29.876 86.091 55.894 34.168 39.415 34.585 98.766 18.947 148.537s-44.792 94.092-65.282 142.068c-50.128 117.356-44.918 257 13.814 370.293"/><path data-name="Path 34" d="M172.379 2538.44a311.6 311.6 0 0 1 69.046-69.737c8.025-5.873 17.1-11.59 27.032-11.143 14.643.668 25.637 15.114 27.586 29.643s-2.868 29.017-7.625 42.885q-46.852 136.646-93.705 273.302"/><path data-name="Path 35" d="M174.233 2980.474c6.177 152.43 84.934 300.323 207.96 390.528 51.082 37.459 113.963 71.723 129.447 133.143 12.025 47.684-9.116 96.644-27.514 142.247-55.19 136.828-89 291.9-39.778 430.986"/><path data-name="Path 36" d="M139.934 3322.381c3.446 58.624 58.559 99.231 109.963 127.639s109.474 58.91 127.813 114.7c16.091 48.978-4.018 101.461-18.87 150.832a747.2 747.2 0 0 0-8.186 398.338"/><path data-name="Path 37" d="M155.954 3533.775c46.17 17.021 96.87 38.115 117.135 82.955 15.477 34.245 8.991 73.935 2.212 110.9l-58.9 321.214"/><path data-name="Path 38" d="M33.679 1635.628c99.106 57.98 243.04 15.93 295.351-86.276 40.387-78.9 27.7-172.921 31.754-261.463 10.129-221.171 141.614-435.23 338.946-535.615 118.369-60.222 253.653-79.581 386.444-81.256 120.587-1.52 247.3 12.932 346.409 81.631 78.347 54.305 132.047 137.737 171.232 224.645 102.755 227.927 115.931 494.845 36.118 731.78-8.764 26.018-18.75 52.972-15 80.171s26.93 54.01 54.2 50.82c26.733-3.124 42.616-31.187 66.029-44.458 64.854-36.762 158.219 48.978 215.114.8 24.128-20.426 27.544-57.527 17.707-87.575s-30.233-55.226-48.25-81.208c-120.927-174.418-140.309-410.68-62.935-608.307s245.332-354.508 442.666-432.643"/><path data-name="Path 39" d="M620.857 715.611c-134.5 42.5-246.134 151.649-291.654 285.162-22.822 66.923-29.619 138.08-44.423 207.221s-39.385 139.26-89.931 188.7S62.29 1468.872.733 1434.09"/><path data-name="Path 40" d="M224.308 1156.307c2.683-196.257 100.9-389 258.112-506.506"/><path data-name="Path 41" d="M1496.005 616.165c71.371 22.173 125.631 83.044 156.621 151.047s41.794 143.236 50.779 217.427c3.327 27.485 14.982 62.893 42.658 61.933 25.959-.9 36.392-33.22 41.066-58.767 36.666-200.698 145.752-387.368 302.606-517.828"/><path data-name="Path 42" d="M1778.603 1509.076c-5.8-8.943-20.169-12.938-27.115-4.859-3.4 3.959-4.084 9.492-4.633 14.678-3.088 29.434-2.576 62.285-9.539 91.016-6.665 27.485-23.639 43.171-31.7 70.006-4.788 15.948-2.23 35.289 10.565 45.943 19.251 16.032 77.541-16.467 107.441-8.842 13.242 3.38 26.173 9.015 39.838 9.015s28.779-8.013 30.817-21.517c2.665-17.677-16.545-29.655-31.646-39.212a173.3 173.3 0 0 1-64.61-75c-10.758-23.876-6.105-60.679-19.418-81.228Z"/><path data-name="Path 43" d="M1084.402 2511.927c-13.516 40.208-15.263 85.406 1.258 124.474 24.641 58.29 85.072 93.83 145.836 111.5 28.337 8.24 58.231 13.516 87.349 8.746s57.5-20.891 71.413-46.921c23.18-43.373.894-95.606-14.052-142.462-22.447-70.345 12.019-227.473-82.466-247.172-90.976-18.963-185.031 119.522-209.338 191.835Z"/><path data-name="Path 44" d="M1181.276 2544.235c-5.664 46.879 19.233 99.976 64.646 112.914 16.1 4.585 36.2 2.522 45.544-11.364 7.083-10.511 5.884-24.325 4.412-36.917l-18.816-160.914c-.835-7.125-1.806-14.613-6.1-20.354-29.694-39.706-87.138 95.524-89.686 116.635Z"/><path data-name="Path 45" d="M1880.297 2441.372c35.349 93.925 56.71 195.571 41.99 294.838s-69.718 195.828-157.927 243.684c-26.757 14.512-61.14 32.5-58.3 62.8s40.446 41.781 70.6 45.955c94.646 13.1 193.771 25.78 283.54-6.94s164.962-126.783 142.252-219.59c-17.045-69.636-80.4-116.008-125.994-171.335-92.017-111.684-112.074-277.731-49.289-408.114 9.629-19.991 21.344-40.977 18.089-62.923-12.329-83.116-128.385-35.945-164.843-1.592-63.546 59.877-25.898 154.714-.118 223.217Z"/><path data-name="Path 46" d="M1994.909 2795.032c-5.211 10.72-6 22.954-7.715 34.746a209.87 209.87 0 0 1-62.78 121c-13.611 12.9-30.5 27.64-27.777 46.187 1.86 12.669 13.218 22.369 25.559 25.756s25.5 1.574 38-1.192c37.28-8.263 73.3-25.469 99.511-53.24s41.615-66.8 36.386-104.633c-4.403-31.856-72.894-126.855-101.184-68.624Z"/><path data-name="Path 47" d="M2920.854 1301.448c-62.976-101.789-163.15-179-276.063-217.773-112.575-38.651-303.454-49.276-368.642 75.657-107.119 205.313 236.929 317.672 300.466 472.314 45.913 111.745-10.654 241.162-91.409 331.015-22.453 24.981-48.8 55.792-38.622 87.8 11.668 36.66 60.758 42.878 98.927 38.013 171.258-21.821 328.094-135.271 402.41-291.1s63.773-349.106-27.067-495.926Z"/><path data-name="Path 48" d="M2397.29 1284.325c22.013 115.942 254.813 240.262 290.307 332.112 38.533 99.69-9.8 212.6-75.61 296.811-10.2 13.051-21.469 27.849-19.3 44.268 2.611 19.823 25.07 32.153 44.989 30.376s37.31-13.826 52.865-26.382c163.382-131.9 227.289-373.751 150.391-569.143-31.747-80.678-86.043-153.706-159.167-200.281-63.644-40.542-165.868-59.435-231.438-12.377-46.318 33.239-59.893 68.522-53.037 104.616Z"/><path data-name="Path 49" d="M2514.926 1313.705c5.038 21.612 17.6 40.708 31.527 57.986 24.54 30.43 53.831 56.621 82.979 82.663q53.859 48.132 107.733 96.263c7.095 6.338 16.586 13.116 25.267 9.223 8.746-3.923 9.939-15.68 9.485-25.249-4.126-87.492-39.808-172.379-97.305-238.175-23.007-26.328-59.417-70.548-98.17-69.666-43.845 1.001-70.751 47.332-61.516 86.955Z"/><path data-name="Path 50" d="M2320.142 2448.558c-3.207 26.394 7.345 52.483 19.967 75.884a409.9 409.9 0 0 0 123.562 139.5c13.236 9.366 28.951 18.321 44.8 14.869 19.49-4.251 30.436-25.732 32.338-45.591s-2.438-39.927-.358-59.769c4.847-46.307 42.366-81.226 66.852-120.831 10.761-17.409 19.4-38.246 13.945-57.975-8.341-30.2-44.465-42.634-75.717-44.751-58.996-4.002-216.505 25.582-225.389 98.664Z"/><path data-name="Path 51" d="M2407.032 2476.167c-4.489 33.912 12.967 67.353 36.112 92.548 11.1 12.073 30.174 23.144 42.473 12.294 3.971-3.5 6.081-8.6 8.066-13.5q13.092-32.355 26.185-64.705c7.977-19.716 16.062-41.5 9.432-61.713-19.587-59.732-116.032-12.018-122.268 35.076Z"/><path data-name="Path 52" d="M1409.425 3889.676c-21.791-53.64-43.832-108.341-47.04-165.564s15.364-118.441 62.762-155.334c46.343-36.082 111.382-43.147 171.9-40.845 184.8 7.029 365.953 86.187 548.562 59 150.3-22.375 284.518-121.511 341.383-252.15 20.766-47.714 42.175-107.894 97.043-116.211 34.323-5.2 68.759 15.1 86.914 42.545s22.888 60.651 24.045 92.81c7.786 216.271-142.736 429.937-359.752 510.668"/><path data-name="Path 53" d="M1540.875 3832.179c-53.7-31.229-49.109-117.8-4.114-160.628s112.824-50.8 174.823-46.963c186.378 11.548 372.761 108.162 552.128 56.221 96.167-27.849 178.77-99.327 220.14-190.5 13.927-30.686 31.652-69.463 65.349-68.938 26.412.411 45.6 28.623 45.5 55.041s-14.136 50.587-28.779 72.575a829.6 829.6 0 0 1-327.751 285.469"/><path data-name="Path 54" d="M1607.464 3824.04c-15.072-21.225-6.838-52.632 12.019-70.584s45.329-25.231 70.977-29.7c149.294-25.97 310.083 27.371 414.251 137.43"/><path data-name="Path 55" d="M3013.759 3900.604c164.861-160.64 219.127-424.446 131.05-637.109-49.695-120.01-140.78-227.677-147.732-357.38-3-55.965 14.976-118.56 63.662-146.313 47.839-27.276 111.138-11.286 153.14 24.319s67.036 86.908 88.828 137.477c49.234 114.279 82.883 264.688 171.1 355.632 84.386 86.991 205.182 140.381 325.7 147.923 235.063 14.7 437.055-146.176 544.383-345.294 76.916-142.686 52.978-268.176 12.224-416.186-3.4-12.383-6.821-25.535-3.238-37.859 6.6-22.727 35.206-32.779 58.207-27.24s41.471 22.161 58.869 38.2c77.047 71 146.7 162.548 247.667 198.88 43.892 15.793 90.98 21.1 135.027 36.458s87.3 44.149 102.183 88.357c57.706 171.425-318.1 260.533-423.516 302.183-172.069 67.979-354.732 172.9-473.393 316.891-119.305 144.769-202.219 319.914-235.152 504.8"/><path data-name="Path 56" d="M3116.866 3901.749c86.151-105.593 137.829-238.861 145.389-374.925s-29.029-274.243-102.946-388.733c-23.216-35.957-50.808-71.663-56.12-114.13s23.86-92.84 66.613-90.867c25.487 1.181 46.563 19.937 62.953 39.492 97.174 115.995 105.919 285.316 195.666 407.144 91.57 124.3 267.461 178.758 413.249 127.95 23.758-8.275 47.094-19.12 72.158-21.314s53.205 6.624 65.254 28.707c18.512 33.948-9.205 73.636-34.192 103.148a1520.2 1520.2 0 0 0-305.874 582.479"/><path data-name="Path 57" d="M3194.819 3961.423c120-72.063 184.071-226.269 150.463-362.149-8.072-32.654-16.031-77.2 14.553-91.2 18.285-8.371 40.416 1.872 53.509 17.135s20.009 34.722 29.84 52.275c41.692 74.417 143.278 108.311 221.3 73.833 19.4-8.568 37.25-20.706 57.45-27.151s44.524-6.046 60.091 8.353c16.318 15.09 17.88 41.221 10.016 62s-23.3 37.638-37.865 54.427a1046.8 1046.8 0 0 0-220.842 418.296"/><path data-name="Path 58" d="m3382.943 3883.827 14.935-124.54c2.254-18.8 7.333-41.281 25.267-47.356 13.2-4.471 27.562 2.57 38.342 11.406s20.2 19.836 32.964 25.44c33.3 14.619 73.934-13.081 107.411 1.151 22.9 9.736 34.246 36.731 33.977 61.611-.554 50.73-38.019 92.619-74.06 128.332s-75.175 74.908-80.648 125.349"/><path data-name="Path 59" d="M4479.263 2836.766c-5.467 19.4.638 39.892 4.608 59.656 19.907 99.154-19.055 207.882-97.407 271.825-16.056 13.1-35.712 29.637-31.074 49.836 3.38 14.708 19.526 23.568 34.616 23.7s29.345-6.373 43.022-12.747q159.131-74.202 318.274-148.407c25.375-11.828 54.928-30.334 52.853-58.255-1.591-21.445-21.641-36.088-39.766-47.666q-84.923-54.239-169.851-108.474c-26.322-16.811-97.749-91.664-115.275-29.468Z"/><path data-name="Path 60" d="M4530.714 3092.446c-8.221 13.218-17.892 31.432-6.874 42.432 8.77 8.752 23.52 4.621 34.884-.339q32.275-14.095 63.2-31.062c27.3-14.983 56-34.651 63.161-64.956 11.25-47.546-59.048-127.091-111.37-111.9-32.028 9.295-23.419 32.189-21.565 59.62 2.687 39.86.809 70.427-21.436 106.205Z"/><path data-name="Path 61" d="M3744.055 671.576c-33.053 67.615-4.275 152.6 49.079 205.677s126.2 80.993 197.4 105.378 144.8 47.595 203.941 94.152c72.985 57.45 117.285 147.755 125.036 240.315s-19.549 186.521-69.761 264.658c-42.354 65.916-99.845 120.539-148.65 181.835s-90.21 133.608-91.117 211.955c-1.151 99.327 61.682 186.562 121.708 265.708 11.835 15.609 27.122 32.863 46.653 31.324 17.976-1.413 30.955-19.46 33.107-37.364s-3.809-35.671-9.384-52.823c-35.813-110.267-58.63-230.407-25.314-341.46 47.356-157.844 193.907-260.491 306.559-380.768 192.524-205.57 297.048-490.965 282.836-772.257"/><path data-name="Path 62" d="M3919.635 703.812c-5.718 59.067 30.352 115.824 77.678 151.626s104.887 54.772 160.908 74.363 113.087 41.263 157.164 81.006c50.438 45.49 79.342 111.513 89.018 178.74 7.554 52.471 3.232 102.85-6.582 154.207-2.784 14.565-18.387 25.47-8.621 40.929 32.648 51.7 112.992-59.691 126.609-83.164 126.06-217.362 151.244-490.588 67.036-727.332"/><path data-name="Path 63" d="M4088.974 703.139c15.7 48.328 57.879 83.39 102.212 108.228s92.781 42.318 134.92 70.721a309.1 309.1 0 0 1 113.987 142.032c9.986 25.356 26.745 58.326 53.228 51.929 17.761-4.293 25.684-24.718 29.7-42.539 29.392-130.818-6.016-274.591-92.793-376.809"/><path data-name="Path 64" d="M4230.141 730.111a432 432 0 0 1 177.637 155.25c5.515 8.526 10.9 17.445 18.917 23.675s19.49 9.217 28.451 4.448c15.984-8.514 12.8-32.141 6.457-49.1a532.7 532.7 0 0 0-118.118-185.612"/><path data-name="Path 65" d="M2935.997 678.778s261.91 87.915 446.94 425.763 140.745 676.631 160.9 735.78 79.777-72.015 127.473-163.43 194.756-159.87 166.934-278.664-488.883-222.137-540.55-667.3"/><path data-name="Path 66" d="M3540.911 1291.216c-4.608 11.93-2.295 25.279.072 37.847q27.884 147.872 55.774 295.75c16.085 1.526 29.226-13.671 33.888-29.142s3.953-32.165 8.693-47.612c12.466-40.625 59.7-64.872 67.138-106.714 5.545-31.181-13.242-61.379-34.168-85.155-17.451-19.833-110.607-118.793-131.397-64.974Z"/><path data-name="Path 67" d="M3442.17 2087.219c5.938-28.218 8.711-63.37 35.068-75.074 19.615-8.71 43.493 2 56.573 19.007s17.879 38.795 22.149 59.819c22.047 108.431 42.384 223.64 114.965 307.161 50.611 58.231 121.577 94.653 178.3 146.951 73.66 67.919 121.565 163.138 132.2 262.775 8.09 75.8-12.026 164.02-78.991 200.442-56.758 30.877-129.864 13.283-181.763-25.207-68.11-50.51-107.727-130.758-134.025-211.376s-41.931-164.825-75.007-242.9-87.588-152.1-166.274-183.7c-22.975-9.224-47.675-14.727-68.789-27.664-71.532-43.832-20.855-94.6 35.021-104 66.625-11.204 116.163-57.755 130.573-126.234Z"/><path data-name="Path 68" d="M3815.336 2913.794c-54.5-18.19-110.761-82.663-132.4-117.308-89-142.486-86.163-333.46-229.543-441.628-31.288-23.6-71.013-56.168-56.955-92.751 12.365-32.165 60.4-34.872 88.13-14.428s41.173 54.385 56.949 85.018c72.581 140.918 212.581 232.821 313.928 354.7 40.905 49.186 102.564 180.893 15.978 224.7-17.37 8.786-36.615 8.196-56.087 1.697Z"/><path data-name="Path 69" d="M4811.363 1684.135c-90.169 76.3-181.781 165.3-203.011 281.5-13.677 74.841 5.342 155.071 51.159 215.806s117.737 101.057 193.454 108.461"/><path data-name="Path 70" d="M4752.954 1860.348c-46.134 47.326-64.4 120.039-46.087 183.546s72.468 115.346 136.72 130.848"/><path data-name="Path 71" d="M4572.425 3816.916c95.219-84.273 215.383-133.858 333.09-181.948"/></g></g></svg>